<mxfile host="app.diagrams.net" agent="Mozilla/5.0 (Windows NT 10.0; Win64; x64) AppleWebKit/537.36 (KHTML, like Gecko) Chrome/126.0.0.0 Safari/537.36 OPR/112.0.0.0" version="24.7.12">
  <diagram name="Página-1" id="xcKfCxiTL2I4_x74_rsH">
    <mxGraphModel grid="1" page="0" gridSize="10" guides="1" tooltips="1" connect="1" arrows="1" fold="1" pageScale="1" pageWidth="827" pageHeight="1169" math="0" shadow="0">
      <root>
        <mxCell id="0" />
        <mxCell id="1" parent="0" />
        <mxCell id="mWRZozpnn4bYu3sgDzk4-19" style="edgeStyle=orthogonalEdgeStyle;rounded=0;orthogonalLoop=1;jettySize=auto;html=1;" edge="1" parent="1" source="mWRZozpnn4bYu3sgDzk4-1">
          <mxGeometry relative="1" as="geometry">
            <mxPoint x="640" y="585" as="targetPoint" />
          </mxGeometry>
        </mxCell>
        <mxCell id="mWRZozpnn4bYu3sgDzk4-1" value="Escola" style="rounded=0;whiteSpace=wrap;html=1;glass=0;" vertex="1" parent="1">
          <mxGeometry x="354" y="555" width="120" height="60" as="geometry" />
        </mxCell>
        <mxCell id="mWRZozpnn4bYu3sgDzk4-3" value="Possui" style="rhombus;whiteSpace=wrap;html=1;" vertex="1" parent="1">
          <mxGeometry x="374" y="400" width="80" height="80" as="geometry" />
        </mxCell>
        <mxCell id="mWRZozpnn4bYu3sgDzk4-6" style="edgeStyle=orthogonalEdgeStyle;rounded=0;orthogonalLoop=1;jettySize=auto;html=1;" edge="1" parent="1" source="mWRZozpnn4bYu3sgDzk4-5">
          <mxGeometry relative="1" as="geometry">
            <mxPoint x="414" y="200" as="targetPoint" />
          </mxGeometry>
        </mxCell>
        <mxCell id="mWRZozpnn4bYu3sgDzk4-52" style="edgeStyle=orthogonalEdgeStyle;rounded=0;orthogonalLoop=1;jettySize=auto;html=1;entryX=1;entryY=0.5;entryDx=0;entryDy=0;" edge="1" parent="1" source="mWRZozpnn4bYu3sgDzk4-5" target="mWRZozpnn4bYu3sgDzk4-53">
          <mxGeometry relative="1" as="geometry">
            <mxPoint x="310" y="600" as="targetPoint" />
            <Array as="points">
              <mxPoint x="320" y="300" />
              <mxPoint x="320" y="590" />
            </Array>
          </mxGeometry>
        </mxCell>
        <mxCell id="mWRZozpnn4bYu3sgDzk4-5" value="Alunos" style="rounded=0;whiteSpace=wrap;html=1;" vertex="1" parent="1">
          <mxGeometry x="354" y="270" width="120" height="60" as="geometry" />
        </mxCell>
        <mxCell id="mWRZozpnn4bYu3sgDzk4-9" style="edgeStyle=orthogonalEdgeStyle;rounded=0;orthogonalLoop=1;jettySize=auto;html=1;" edge="1" parent="1" source="mWRZozpnn4bYu3sgDzk4-7">
          <mxGeometry relative="1" as="geometry">
            <mxPoint x="240" y="160" as="targetPoint" />
          </mxGeometry>
        </mxCell>
        <mxCell id="mWRZozpnn4bYu3sgDzk4-7" value="Possuem" style="rhombus;whiteSpace=wrap;html=1;" vertex="1" parent="1">
          <mxGeometry x="374" y="120" width="80" height="80" as="geometry" />
        </mxCell>
        <mxCell id="mWRZozpnn4bYu3sgDzk4-11" value="" style="endArrow=none;html=1;rounded=0;" edge="1" parent="1">
          <mxGeometry width="50" height="50" relative="1" as="geometry">
            <mxPoint x="280" y="400" as="sourcePoint" />
            <mxPoint x="280" y="160" as="targetPoint" />
          </mxGeometry>
        </mxCell>
        <mxCell id="mWRZozpnn4bYu3sgDzk4-12" value="id_aluno" style="rounded=0;whiteSpace=wrap;html=1;" vertex="1" parent="1">
          <mxGeometry x="120" y="130" width="120" height="60" as="geometry" />
        </mxCell>
        <mxCell id="mWRZozpnn4bYu3sgDzk4-13" value="" style="endArrow=classic;html=1;rounded=0;entryX=1;entryY=0.5;entryDx=0;entryDy=0;" edge="1" parent="1" target="mWRZozpnn4bYu3sgDzk4-14">
          <mxGeometry width="50" height="50" relative="1" as="geometry">
            <mxPoint x="280" y="240" as="sourcePoint" />
            <mxPoint x="240" y="280" as="targetPoint" />
            <Array as="points">
              <mxPoint x="260" y="240" />
            </Array>
          </mxGeometry>
        </mxCell>
        <mxCell id="mWRZozpnn4bYu3sgDzk4-14" value="email" style="rounded=0;whiteSpace=wrap;html=1;" vertex="1" parent="1">
          <mxGeometry x="120" y="210" width="120" height="60" as="geometry" />
        </mxCell>
        <mxCell id="mWRZozpnn4bYu3sgDzk4-15" value="telefone" style="rounded=0;whiteSpace=wrap;html=1;" vertex="1" parent="1">
          <mxGeometry x="120" y="290" width="120" height="60" as="geometry" />
        </mxCell>
        <mxCell id="mWRZozpnn4bYu3sgDzk4-16" value="" style="endArrow=classic;html=1;rounded=0;entryX=1;entryY=0.5;entryDx=0;entryDy=0;" edge="1" parent="1" target="mWRZozpnn4bYu3sgDzk4-15">
          <mxGeometry width="50" height="50" relative="1" as="geometry">
            <mxPoint x="280" y="320" as="sourcePoint" />
            <mxPoint x="250" y="250" as="targetPoint" />
            <Array as="points" />
          </mxGeometry>
        </mxCell>
        <mxCell id="mWRZozpnn4bYu3sgDzk4-17" value="data_de_nascimento" style="rounded=0;whiteSpace=wrap;html=1;" vertex="1" parent="1">
          <mxGeometry x="120" y="370" width="120" height="60" as="geometry" />
        </mxCell>
        <mxCell id="mWRZozpnn4bYu3sgDzk4-18" value="" style="endArrow=classic;html=1;rounded=0;entryX=1;entryY=0.5;entryDx=0;entryDy=0;" edge="1" parent="1" target="mWRZozpnn4bYu3sgDzk4-17">
          <mxGeometry width="50" height="50" relative="1" as="geometry">
            <mxPoint x="280" y="400" as="sourcePoint" />
            <mxPoint x="250" y="330" as="targetPoint" />
            <Array as="points" />
          </mxGeometry>
        </mxCell>
        <mxCell id="mWRZozpnn4bYu3sgDzk4-21" style="edgeStyle=orthogonalEdgeStyle;rounded=0;orthogonalLoop=1;jettySize=auto;html=1;" edge="1" parent="1" source="mWRZozpnn4bYu3sgDzk4-20">
          <mxGeometry relative="1" as="geometry">
            <mxPoint x="880" y="585" as="targetPoint" />
          </mxGeometry>
        </mxCell>
        <mxCell id="mWRZozpnn4bYu3sgDzk4-20" value="Possui" style="rhombus;whiteSpace=wrap;html=1;" vertex="1" parent="1">
          <mxGeometry x="640" y="545" width="80" height="80" as="geometry" />
        </mxCell>
        <mxCell id="mWRZozpnn4bYu3sgDzk4-23" style="edgeStyle=orthogonalEdgeStyle;rounded=0;orthogonalLoop=1;jettySize=auto;html=1;" edge="1" parent="1" source="mWRZozpnn4bYu3sgDzk4-22">
          <mxGeometry relative="1" as="geometry">
            <mxPoint x="1160" y="585" as="targetPoint" />
          </mxGeometry>
        </mxCell>
        <mxCell id="mWRZozpnn4bYu3sgDzk4-22" value="Cursos" style="rounded=0;whiteSpace=wrap;html=1;" vertex="1" parent="1">
          <mxGeometry x="880" y="555" width="120" height="60" as="geometry" />
        </mxCell>
        <mxCell id="mWRZozpnn4bYu3sgDzk4-28" style="edgeStyle=orthogonalEdgeStyle;rounded=0;orthogonalLoop=1;jettySize=auto;html=1;" edge="1" parent="1" source="mWRZozpnn4bYu3sgDzk4-26">
          <mxGeometry relative="1" as="geometry">
            <mxPoint x="1320" y="585" as="targetPoint" />
          </mxGeometry>
        </mxCell>
        <mxCell id="mWRZozpnn4bYu3sgDzk4-30" style="edgeStyle=orthogonalEdgeStyle;rounded=0;orthogonalLoop=1;jettySize=auto;html=1;entryX=0;entryY=0.5;entryDx=0;entryDy=0;" edge="1" parent="1" source="mWRZozpnn4bYu3sgDzk4-26" target="mWRZozpnn4bYu3sgDzk4-32">
          <mxGeometry relative="1" as="geometry">
            <mxPoint x="1320" y="620" as="targetPoint" />
          </mxGeometry>
        </mxCell>
        <mxCell id="mWRZozpnn4bYu3sgDzk4-26" value="Possuem" style="rhombus;whiteSpace=wrap;html=1;" vertex="1" parent="1">
          <mxGeometry x="1160" y="545" width="80" height="80" as="geometry" />
        </mxCell>
        <mxCell id="mWRZozpnn4bYu3sgDzk4-31" value="id_curso" style="rounded=0;whiteSpace=wrap;html=1;" vertex="1" parent="1">
          <mxGeometry x="1320" y="555" width="120" height="60" as="geometry" />
        </mxCell>
        <mxCell id="mWRZozpnn4bYu3sgDzk4-32" value="id_aluno" style="rounded=0;whiteSpace=wrap;html=1;" vertex="1" parent="1">
          <mxGeometry x="1320" y="640" width="120" height="60" as="geometry" />
        </mxCell>
        <mxCell id="mWRZozpnn4bYu3sgDzk4-33" value="nome" style="rounded=0;whiteSpace=wrap;html=1;" vertex="1" parent="1">
          <mxGeometry x="1320" y="730" width="120" height="60" as="geometry" />
        </mxCell>
        <mxCell id="mWRZozpnn4bYu3sgDzk4-36" style="edgeStyle=orthogonalEdgeStyle;rounded=0;orthogonalLoop=1;jettySize=auto;html=1;entryX=0;entryY=0.5;entryDx=0;entryDy=0;exitX=1;exitY=0.5;exitDx=0;exitDy=0;" edge="1" parent="1" source="mWRZozpnn4bYu3sgDzk4-26" target="mWRZozpnn4bYu3sgDzk4-33">
          <mxGeometry relative="1" as="geometry">
            <mxPoint x="1330" y="680" as="targetPoint" />
            <mxPoint x="1240" y="580" as="sourcePoint" />
          </mxGeometry>
        </mxCell>
        <mxCell id="mWRZozpnn4bYu3sgDzk4-38" value="Possuem" style="rhombus;whiteSpace=wrap;html=1;" vertex="1" parent="1">
          <mxGeometry x="560" y="260" width="80" height="80" as="geometry" />
        </mxCell>
        <mxCell id="mWRZozpnn4bYu3sgDzk4-41" style="edgeStyle=orthogonalEdgeStyle;rounded=0;orthogonalLoop=1;jettySize=auto;html=1;" edge="1" parent="1" source="mWRZozpnn4bYu3sgDzk4-40">
          <mxGeometry relative="1" as="geometry">
            <mxPoint x="920" y="300" as="targetPoint" />
          </mxGeometry>
        </mxCell>
        <mxCell id="mWRZozpnn4bYu3sgDzk4-40" value="Responsáveis" style="rounded=0;whiteSpace=wrap;html=1;" vertex="1" parent="1">
          <mxGeometry x="720" y="270" width="120" height="60" as="geometry" />
        </mxCell>
        <mxCell id="mWRZozpnn4bYu3sgDzk4-44" style="edgeStyle=orthogonalEdgeStyle;rounded=0;orthogonalLoop=1;jettySize=auto;html=1;" edge="1" parent="1" source="mWRZozpnn4bYu3sgDzk4-43">
          <mxGeometry relative="1" as="geometry">
            <mxPoint x="1080" y="300" as="targetPoint" />
          </mxGeometry>
        </mxCell>
        <mxCell id="mWRZozpnn4bYu3sgDzk4-49" style="edgeStyle=orthogonalEdgeStyle;rounded=0;orthogonalLoop=1;jettySize=auto;html=1;entryX=0;entryY=0.5;entryDx=0;entryDy=0;" edge="1" parent="1" source="mWRZozpnn4bYu3sgDzk4-43" target="mWRZozpnn4bYu3sgDzk4-46">
          <mxGeometry relative="1" as="geometry" />
        </mxCell>
        <mxCell id="mWRZozpnn4bYu3sgDzk4-50" style="edgeStyle=orthogonalEdgeStyle;rounded=0;orthogonalLoop=1;jettySize=auto;html=1;entryX=0;entryY=0.5;entryDx=0;entryDy=0;" edge="1" parent="1" source="mWRZozpnn4bYu3sgDzk4-43" target="mWRZozpnn4bYu3sgDzk4-47">
          <mxGeometry relative="1" as="geometry" />
        </mxCell>
        <mxCell id="mWRZozpnn4bYu3sgDzk4-51" style="edgeStyle=orthogonalEdgeStyle;rounded=0;orthogonalLoop=1;jettySize=auto;html=1;entryX=0;entryY=0.5;entryDx=0;entryDy=0;" edge="1" parent="1" source="mWRZozpnn4bYu3sgDzk4-43" target="mWRZozpnn4bYu3sgDzk4-48">
          <mxGeometry relative="1" as="geometry" />
        </mxCell>
        <mxCell id="mWRZozpnn4bYu3sgDzk4-43" value="Possuem" style="rhombus;whiteSpace=wrap;html=1;" vertex="1" parent="1">
          <mxGeometry x="920" y="260" width="80" height="80" as="geometry" />
        </mxCell>
        <mxCell id="mWRZozpnn4bYu3sgDzk4-45" value="cpf" style="rounded=0;whiteSpace=wrap;html=1;" vertex="1" parent="1">
          <mxGeometry x="1080" y="270" width="120" height="60" as="geometry" />
        </mxCell>
        <mxCell id="mWRZozpnn4bYu3sgDzk4-46" value="email" style="rounded=0;whiteSpace=wrap;html=1;" vertex="1" parent="1">
          <mxGeometry x="1080" y="190" width="120" height="60" as="geometry" />
        </mxCell>
        <mxCell id="mWRZozpnn4bYu3sgDzk4-47" value="id_aluno" style="rounded=0;whiteSpace=wrap;html=1;" vertex="1" parent="1">
          <mxGeometry x="1080" y="110" width="120" height="60" as="geometry" />
        </mxCell>
        <mxCell id="mWRZozpnn4bYu3sgDzk4-48" value="id_responsavel" style="rounded=0;whiteSpace=wrap;html=1;" vertex="1" parent="1">
          <mxGeometry x="1080" y="30" width="120" height="60" as="geometry" />
        </mxCell>
        <mxCell id="mWRZozpnn4bYu3sgDzk4-55" style="edgeStyle=orthogonalEdgeStyle;rounded=0;orthogonalLoop=1;jettySize=auto;html=1;" edge="1" parent="1" source="mWRZozpnn4bYu3sgDzk4-53">
          <mxGeometry relative="1" as="geometry">
            <mxPoint x="169.99999999999977" y="720" as="targetPoint" />
          </mxGeometry>
        </mxCell>
        <mxCell id="mWRZozpnn4bYu3sgDzk4-53" value="Possuem" style="rhombus;whiteSpace=wrap;html=1;" vertex="1" parent="1">
          <mxGeometry x="130" y="550" width="80" height="80" as="geometry" />
        </mxCell>
        <mxCell id="mWRZozpnn4bYu3sgDzk4-57" style="edgeStyle=orthogonalEdgeStyle;rounded=0;orthogonalLoop=1;jettySize=auto;html=1;" edge="1" parent="1" source="mWRZozpnn4bYu3sgDzk4-56">
          <mxGeometry relative="1" as="geometry">
            <mxPoint x="170" y="870" as="targetPoint" />
          </mxGeometry>
        </mxCell>
        <mxCell id="mWRZozpnn4bYu3sgDzk4-56" value="Matrícula" style="rounded=0;whiteSpace=wrap;html=1;" vertex="1" parent="1">
          <mxGeometry x="110" y="720" width="120" height="60" as="geometry" />
        </mxCell>
        <mxCell id="mWRZozpnn4bYu3sgDzk4-59" style="edgeStyle=orthogonalEdgeStyle;rounded=0;orthogonalLoop=1;jettySize=auto;html=1;" edge="1" parent="1" source="mWRZozpnn4bYu3sgDzk4-58">
          <mxGeometry relative="1" as="geometry">
            <mxPoint x="330" y="910" as="targetPoint" />
          </mxGeometry>
        </mxCell>
        <mxCell id="mWRZozpnn4bYu3sgDzk4-63" style="edgeStyle=orthogonalEdgeStyle;rounded=0;orthogonalLoop=1;jettySize=auto;html=1;entryX=0;entryY=0.5;entryDx=0;entryDy=0;" edge="1" parent="1" source="mWRZozpnn4bYu3sgDzk4-58" target="mWRZozpnn4bYu3sgDzk4-61">
          <mxGeometry relative="1" as="geometry" />
        </mxCell>
        <mxCell id="mWRZozpnn4bYu3sgDzk4-64" style="edgeStyle=orthogonalEdgeStyle;rounded=0;orthogonalLoop=1;jettySize=auto;html=1;entryX=0;entryY=0.5;entryDx=0;entryDy=0;" edge="1" parent="1" source="mWRZozpnn4bYu3sgDzk4-58" target="mWRZozpnn4bYu3sgDzk4-62">
          <mxGeometry relative="1" as="geometry" />
        </mxCell>
        <mxCell id="mWRZozpnn4bYu3sgDzk4-58" value="Possui" style="rhombus;whiteSpace=wrap;html=1;" vertex="1" parent="1">
          <mxGeometry x="130" y="870" width="80" height="80" as="geometry" />
        </mxCell>
        <mxCell id="mWRZozpnn4bYu3sgDzk4-60" value="id_matricula" style="rounded=0;whiteSpace=wrap;html=1;" vertex="1" parent="1">
          <mxGeometry x="330" y="880" width="120" height="60" as="geometry" />
        </mxCell>
        <mxCell id="mWRZozpnn4bYu3sgDzk4-61" value="id_curso" style="rounded=0;whiteSpace=wrap;html=1;" vertex="1" parent="1">
          <mxGeometry x="330" y="960" width="120" height="60" as="geometry" />
        </mxCell>
        <mxCell id="mWRZozpnn4bYu3sgDzk4-62" value="id_aluno" style="rounded=0;whiteSpace=wrap;html=1;" vertex="1" parent="1">
          <mxGeometry x="330" y="1040" width="120" height="60" as="geometry" />
        </mxCell>
        <mxCell id="mWRZozpnn4bYu3sgDzk4-65" value="1, N" style="text;html=1;align=center;verticalAlign=middle;whiteSpace=wrap;rounded=0;" vertex="1" parent="1">
          <mxGeometry x="760" y="560" width="60" height="30" as="geometry" />
        </mxCell>
        <mxCell id="mWRZozpnn4bYu3sgDzk4-66" value="1" style="text;html=1;align=center;verticalAlign=middle;whiteSpace=wrap;rounded=0;" vertex="1" parent="1">
          <mxGeometry x="1270" y="560" width="60" height="30" as="geometry" />
        </mxCell>
        <mxCell id="mWRZozpnn4bYu3sgDzk4-67" value="1, N" style="text;html=1;align=center;verticalAlign=middle;whiteSpace=wrap;rounded=0;" vertex="1" parent="1">
          <mxGeometry x="1270" y="640" width="60" height="30" as="geometry" />
        </mxCell>
        <mxCell id="mWRZozpnn4bYu3sgDzk4-68" value="1" style="text;html=1;align=center;verticalAlign=middle;whiteSpace=wrap;rounded=0;" vertex="1" parent="1">
          <mxGeometry x="1270" y="735" width="60" height="30" as="geometry" />
        </mxCell>
        <mxCell id="mWRZozpnn4bYu3sgDzk4-69" value="1, N" style="text;html=1;align=center;verticalAlign=middle;whiteSpace=wrap;rounded=0;" vertex="1" parent="1">
          <mxGeometry x="414" y="360" width="60" height="30" as="geometry" />
        </mxCell>
        <mxCell id="mWRZozpnn4bYu3sgDzk4-70" value="1" style="text;html=1;align=center;verticalAlign=middle;whiteSpace=wrap;rounded=0;" vertex="1" parent="1">
          <mxGeometry x="230" y="130" width="60" height="30" as="geometry" />
        </mxCell>
        <mxCell id="mWRZozpnn4bYu3sgDzk4-71" value="1" style="text;html=1;align=center;verticalAlign=middle;whiteSpace=wrap;rounded=0;" vertex="1" parent="1">
          <mxGeometry x="230" y="210" width="60" height="30" as="geometry" />
        </mxCell>
        <mxCell id="mWRZozpnn4bYu3sgDzk4-72" value="1" style="text;html=1;align=center;verticalAlign=middle;whiteSpace=wrap;rounded=0;" vertex="1" parent="1">
          <mxGeometry x="230" y="285" width="60" height="30" as="geometry" />
        </mxCell>
        <mxCell id="mWRZozpnn4bYu3sgDzk4-73" value="1" style="text;html=1;align=center;verticalAlign=middle;whiteSpace=wrap;rounded=0;" vertex="1" parent="1">
          <mxGeometry x="230" y="370" width="60" height="30" as="geometry" />
        </mxCell>
        <mxCell id="mWRZozpnn4bYu3sgDzk4-75" value="1" style="text;html=1;align=center;verticalAlign=middle;whiteSpace=wrap;rounded=0;" vertex="1" parent="1">
          <mxGeometry x="1030" y="30" width="60" height="30" as="geometry" />
        </mxCell>
        <mxCell id="mWRZozpnn4bYu3sgDzk4-76" value="1, N" style="text;html=1;align=center;verticalAlign=middle;whiteSpace=wrap;rounded=0;" vertex="1" parent="1">
          <mxGeometry x="1030" y="110" width="60" height="30" as="geometry" />
        </mxCell>
        <mxCell id="mWRZozpnn4bYu3sgDzk4-78" value="1" style="text;html=1;align=center;verticalAlign=middle;whiteSpace=wrap;rounded=0;" vertex="1" parent="1">
          <mxGeometry x="1030" y="190" width="60" height="30" as="geometry" />
        </mxCell>
        <mxCell id="mWRZozpnn4bYu3sgDzk4-79" value="1" style="text;html=1;align=center;verticalAlign=middle;whiteSpace=wrap;rounded=0;" vertex="1" parent="1">
          <mxGeometry x="1030" y="270" width="60" height="30" as="geometry" />
        </mxCell>
        <mxCell id="mWRZozpnn4bYu3sgDzk4-81" value="" style="endArrow=classic;startArrow=classic;html=1;rounded=0;exitX=0;exitY=1;exitDx=0;exitDy=0;entryX=0;entryY=0.5;entryDx=0;entryDy=0;" edge="1" parent="1" target="mWRZozpnn4bYu3sgDzk4-40">
          <mxGeometry width="50" height="50" relative="1" as="geometry">
            <mxPoint x="640" y="300" as="sourcePoint" />
            <mxPoint x="730" y="290" as="targetPoint" />
          </mxGeometry>
        </mxCell>
        <mxCell id="mWRZozpnn4bYu3sgDzk4-82" value="" style="endArrow=classic;startArrow=classic;html=1;rounded=0;" edge="1" parent="1" source="mWRZozpnn4bYu3sgDzk4-5">
          <mxGeometry width="50" height="50" relative="1" as="geometry">
            <mxPoint x="600" y="350" as="sourcePoint" />
            <mxPoint x="560" y="300" as="targetPoint" />
          </mxGeometry>
        </mxCell>
        <mxCell id="mWRZozpnn4bYu3sgDzk4-83" value="1" style="text;html=1;align=center;verticalAlign=middle;whiteSpace=wrap;rounded=0;" vertex="1" parent="1">
          <mxGeometry x="170" y="690" width="60" height="30" as="geometry" />
        </mxCell>
        <mxCell id="mWRZozpnn4bYu3sgDzk4-84" value="1" style="text;html=1;align=center;verticalAlign=middle;whiteSpace=wrap;rounded=0;" vertex="1" parent="1">
          <mxGeometry x="270" y="880" width="60" height="30" as="geometry" />
        </mxCell>
        <mxCell id="mWRZozpnn4bYu3sgDzk4-85" value="1" style="text;html=1;align=center;verticalAlign=middle;whiteSpace=wrap;rounded=0;" vertex="1" parent="1">
          <mxGeometry x="270" y="960" width="60" height="30" as="geometry" />
        </mxCell>
        <mxCell id="mWRZozpnn4bYu3sgDzk4-86" value="1" style="text;html=1;align=center;verticalAlign=middle;whiteSpace=wrap;rounded=0;" vertex="1" parent="1">
          <mxGeometry x="270" y="1040" width="60" height="30" as="geometry" />
        </mxCell>
        <mxCell id="mWRZozpnn4bYu3sgDzk4-87" value="" style="endArrow=classic;startArrow=classic;html=1;rounded=0;exitX=0.5;exitY=0;exitDx=0;exitDy=0;" edge="1" parent="1" source="mWRZozpnn4bYu3sgDzk4-3" target="mWRZozpnn4bYu3sgDzk4-5">
          <mxGeometry width="50" height="50" relative="1" as="geometry">
            <mxPoint x="380" y="400" as="sourcePoint" />
            <mxPoint x="430" y="350" as="targetPoint" />
          </mxGeometry>
        </mxCell>
        <mxCell id="mWRZozpnn4bYu3sgDzk4-88" value="" style="endArrow=classic;startArrow=classic;html=1;rounded=0;exitX=0.5;exitY=0;exitDx=0;exitDy=0;entryX=0.5;entryY=1;entryDx=0;entryDy=0;" edge="1" parent="1" source="mWRZozpnn4bYu3sgDzk4-1" target="mWRZozpnn4bYu3sgDzk4-3">
          <mxGeometry width="50" height="50" relative="1" as="geometry">
            <mxPoint x="424" y="410" as="sourcePoint" />
            <mxPoint x="424" y="340" as="targetPoint" />
          </mxGeometry>
        </mxCell>
        <mxCell id="mWRZozpnn4bYu3sgDzk4-89" value="1" style="text;html=1;align=center;verticalAlign=middle;whiteSpace=wrap;rounded=0;" vertex="1" parent="1">
          <mxGeometry x="414" y="500" width="60" height="30" as="geometry" />
        </mxCell>
        <mxCell id="mWRZozpnn4bYu3sgDzk4-90" value="1, N" style="text;html=1;align=center;verticalAlign=middle;whiteSpace=wrap;rounded=0;" vertex="1" parent="1">
          <mxGeometry x="640" y="270" width="60" height="30" as="geometry" />
        </mxCell>
        <mxCell id="mWRZozpnn4bYu3sgDzk4-91" value="1, N" style="text;html=1;align=center;verticalAlign=middle;whiteSpace=wrap;rounded=0;" vertex="1" parent="1">
          <mxGeometry x="490" y="270" width="60" height="30" as="geometry" />
        </mxCell>
      </root>
    </mxGraphModel>
  </diagram>
</mxfile>
